<svg width="100" height="100" viewBox="0 0 100 100" fill="none" xmlns="http://www.w3.org/2000/svg">
<path d="M15.5174 21.9225L0 6.66102L6.77064 0L22.2833 15.2662H95.2148C95.9606 15.2662 96.6961 15.4376 97.3625 15.7669C98.029 16.0962 98.608 16.5742 99.0534 17.1628C99.4987 17.7514 99.798 18.4342 99.9274 19.1568C100.057 19.8794 100.013 20.6218 99.7987 21.3247L88.3149 58.9841C88.0195 59.9543 87.4139 60.8048 86.5881 61.4094C85.7624 62.0141 84.7604 62.3406 83.731 62.3405H25.0872V71.7554H77.7212V81.1703H20.3023C19.0333 81.1703 17.8162 80.6743 16.9189 79.7915C16.0216 78.9087 15.5174 77.7113 15.5174 76.4628V21.9225ZM25.0872 24.6811V52.9257H80.171L88.7839 24.6811H25.0872ZM22.6948 100C20.7912 100 18.9656 99.2561 17.6196 97.9318C16.2736 96.6076 15.5174 94.8116 15.5174 92.9389C15.5174 91.0661 16.2736 89.2701 17.6196 87.9459C18.9656 86.6216 20.7912 85.8777 22.6948 85.8777C24.5983 85.8777 26.4239 86.6216 27.7699 87.9459C29.116 89.2701 29.8721 91.0661 29.8721 92.9389C29.8721 94.8116 29.116 96.6076 27.7699 97.9318C26.4239 99.2561 24.5983 100 22.6948 100ZM80.1136 100C78.2101 100 76.3845 99.2561 75.0385 97.9318C73.6924 96.6076 72.9363 94.8116 72.9363 92.9389C72.9363 91.0661 73.6924 89.2701 75.0385 87.9459C76.3845 86.6216 78.2101 85.8777 80.1136 85.8777C82.0172 85.8777 83.8427 86.6216 85.1888 87.9459C86.5348 89.2701 87.291 91.0661 87.291 92.9389C87.291 94.8116 86.5348 96.6076 85.1888 97.9318C83.8427 99.2561 82.0172 100 80.1136 100Z" fill="#F7F7F7"/>
</svg>
