<svg width="100" height="100" viewBox="0 0 100 100" fill="none" xmlns="http://www.w3.org/2000/svg">
<path d="M12.5 10V90H87.5V10H12.5ZM6.25 0H93.75C95.4076 0 96.9973 0.526784 98.1694 1.46447C99.3415 2.40215 100 3.67392 100 5V95C100 96.3261 99.3415 97.5979 98.1694 98.5355C96.9973 99.4732 95.4076 100 93.75 100H6.25C4.5924 100 3.00269 99.4732 1.83058 98.5355C0.658481 97.5979 0 96.3261 0 95V5C0 3.67392 0.658481 2.40215 1.83058 1.46447C3.00269 0.526784 4.5924 0 6.25 0ZM50 75C51.6576 75 53.2473 75.5268 54.4194 76.4645C55.5915 77.4021 56.25 78.6739 56.25 80C56.25 81.3261 55.5915 82.5979 54.4194 83.5355C53.2473 84.4732 51.6576 85 50 85C48.3424 85 46.7527 84.4732 45.5806 83.5355C44.4085 82.5979 43.75 81.3261 43.75 80C43.75 78.6739 44.4085 77.4021 45.5806 76.4645C46.7527 75.5268 48.3424 75 50 75V75Z" fill="#F7F7F7"/>
</svg>
