<svg width="31" height="28" viewBox="0 0 31 28" fill="none" xmlns="http://www.w3.org/2000/svg">
<path d="M1.55 0H29.45C29.8611 0 30.2553 0.163888 30.546 0.455612C30.8367 0.747335 31 1.143 31 1.55556V26.4444C31 26.857 30.8367 27.2527 30.546 27.5444C30.2553 27.8361 29.8611 28 29.45 28H1.55C1.13891 28 0.744666 27.8361 0.453984 27.5444C0.163303 27.2527 0 26.857 0 26.4444V1.55556C0 1.143 0.163303 0.747335 0.453984 0.455612C0.744666 0.163888 1.13891 0 1.55 0ZM15.593 13.5069L5.6544 5.03689L3.64715 7.40756L15.6131 17.6042L27.3637 7.39978L25.3363 5.04622L15.5945 13.5069H15.593Z" fill="#FAFAFA"/>
</svg>
