<svg width="205" height="205" viewBox="0 0 205 205" fill="none" xmlns="http://www.w3.org/2000/svg">
<g filter="url(#filter0_d)">
<circle cx="102.5" cy="100.5" r="100.5" fill="#DA291C"/>
</g>
<path fill-rule="evenodd" clip-rule="evenodd" d="M102.5 95.5175L108.59 83.3821C110.103 80.3771 112.726 76.0561 116.438 72.5627C120.09 69.1236 124.463 66.7833 129.75 66.7833C141.168 66.7833 150.188 75.778 150.188 86.5906C150.188 94.8053 146.413 100.605 137.462 109.45C135.166 111.716 132.55 114.165 129.655 116.865C122.106 123.919 112.719 132.697 102.5 144.432C92.2812 132.697 82.8936 123.919 75.3454 116.865C72.4501 114.165 69.8273 111.709 67.5383 109.45C58.5866 100.605 54.8125 94.8053 54.8125 86.5906C54.8125 75.778 63.8323 66.7833 75.25 66.7833C80.5365 66.7833 84.9101 69.1236 88.5616 72.5627C92.2744 76.0561 94.8972 80.3771 96.4096 83.3821L102.5 95.5175ZM105.171 151.765C104.842 152.152 104.434 152.463 103.972 152.676C103.511 152.889 103.009 153 102.5 153C101.991 153 101.489 152.889 101.028 152.676C100.566 152.463 100.158 152.152 99.8295 151.765C88.9227 138.863 79.0514 129.638 70.9241 122.047C56.8562 108.894 48 100.625 48 86.5906C48 71.9047 60.1944 60 75.25 60C86.15 60 93.7732 67.1225 98.4397 73.6209C100.211 76.0968 101.56 78.4778 102.5 80.35C103.679 78.0068 105.036 75.7572 106.56 73.6209C111.227 67.1157 118.85 60 129.75 60C144.806 60 157 71.9047 157 86.5906C157 100.625 148.144 108.894 134.076 122.047C125.949 129.644 116.077 138.87 105.171 151.758V151.765Z" fill="white"/>
<path fill-rule="evenodd" clip-rule="evenodd" d="M102.5 95.5175L108.59 83.3821C110.103 80.3771 112.726 76.0561 116.438 72.5627C120.09 69.1236 124.463 66.7833 129.75 66.7833C141.168 66.7833 150.188 75.778 150.188 86.5906C150.188 94.8053 146.413 100.605 137.462 109.45C135.166 111.716 132.55 114.165 129.655 116.865C122.106 123.919 112.719 132.697 102.5 144.432C92.2812 132.697 82.8936 123.919 75.3454 116.865C72.4501 114.165 69.8273 111.709 67.5383 109.45C58.5866 100.605 54.8125 94.8053 54.8125 86.5906C54.8125 75.778 63.8323 66.7833 75.25 66.7833C80.5365 66.7833 84.9101 69.1236 88.5616 72.5627C92.2744 76.0561 94.8972 80.3771 96.4096 83.3821L102.5 95.5175ZM105.171 151.765C104.842 152.152 104.434 152.463 103.972 152.676C103.511 152.889 103.009 153 102.5 153C101.991 153 101.489 152.889 101.028 152.676C100.566 152.463 100.158 152.152 99.8295 151.765C88.9227 138.863 79.0514 129.638 70.9241 122.047C56.8562 108.894 48 100.625 48 86.5906C48 71.9047 60.1944 60 75.25 60C86.15 60 93.7732 67.1225 98.4397 73.6209C100.211 76.0968 101.56 78.4778 102.5 80.35C103.679 78.0068 105.036 75.7572 106.56 73.6209C111.227 67.1157 118.85 60 129.75 60C144.806 60 157 71.9047 157 86.5906C157 100.625 148.144 108.894 134.076 122.047C125.949 129.644 116.077 138.87 105.171 151.758V151.765Z" fill="url(#paint0_linear)"/>
<defs>
<filter id="filter0_d" x="0" y="0" width="205" height="205" filterUnits="userSpaceOnUse" color-interpolation-filters="sRGB">
<feFlood flood-opacity="0" result="BackgroundImageFix"/>
<feColorMatrix in="SourceAlpha" type="matrix" values="0 0 0 0 0 0 0 0 0 0 0 0 0 0 0 0 0 0 127 0"/>
<feOffset dy="2"/>
<feGaussianBlur stdDeviation="1"/>
<feColorMatrix type="matrix" values="0 0 0 0 0 0 0 0 0 0 0 0 0 0 0 0 0 0 0.25 0"/>
<feBlend mode="normal" in2="BackgroundImageFix" result="effect1_dropShadow"/>
<feBlend mode="normal" in="SourceGraphic" in2="effect1_dropShadow" result="shape"/>
</filter>
<linearGradient id="paint0_linear" x1="102.5" y1="60" x2="102.5" y2="153" gradientUnits="userSpaceOnUse">
<stop stop-color="white"/>
<stop offset="1" stop-color="white" stop-opacity="0"/>
</linearGradient>
</defs>
</svg>
