<svg width="100" height="100" viewBox="0 0 100 100" fill="none" xmlns="http://www.w3.org/2000/svg">
<path d="M50 0C63.585 0 65.28 0.0499997 70.61 0.3C75.935 0.55 79.56 1.385 82.75 2.625C86.05 3.895 88.83 5.615 91.61 8.39C94.1525 10.8895 96.1198 13.9129 97.375 17.25C98.61 20.435 99.45 24.065 99.7 29.39C99.935 34.72 100 36.415 100 50C100 63.585 99.95 65.28 99.7 70.61C99.45 75.935 98.61 79.56 97.375 82.75C96.1234 86.0889 94.1556 89.1131 91.61 91.61C89.1098 94.1516 86.0865 96.1188 82.75 97.375C79.565 98.61 75.935 99.45 70.61 99.7C65.28 99.935 63.585 100 50 100C36.415 100 34.72 99.95 29.39 99.7C24.065 99.45 20.44 98.61 17.25 97.375C13.9116 96.1224 10.8876 94.1547 8.39 91.61C5.84703 89.1109 3.87966 86.0873 2.625 82.75C1.385 79.565 0.55 75.935 0.3 70.61C0.0649997 65.28 0 63.585 0 50C0 36.415 0.0499997 34.72 0.3 29.39C0.55 24.06 1.385 20.44 2.625 17.25C3.87618 13.9109 5.84402 10.8866 8.39 8.39C10.8884 5.84616 13.9121 3.87865 17.25 2.625C20.44 1.385 24.06 0.55 29.39 0.3C34.72 0.0649997 36.415 0 50 0ZM50 25C43.3696 25 37.0107 27.6339 32.3223 32.3223C27.6339 37.0107 25 43.3696 25 50C25 56.6304 27.6339 62.9893 32.3223 67.6777C37.0107 72.3661 43.3696 75 50 75C56.6304 75 62.9893 72.3661 67.6777 67.6777C72.3661 62.9893 75 56.6304 75 50C75 43.3696 72.3661 37.0107 67.6777 32.3223C62.9893 27.6339 56.6304 25 50 25V25ZM82.5 23.75C82.5 22.0924 81.8415 20.5027 80.6694 19.3306C79.4973 18.1585 77.9076 17.5 76.25 17.5C74.5924 17.5 73.0027 18.1585 71.8306 19.3306C70.6585 20.5027 70 22.0924 70 23.75C70 25.4076 70.6585 26.9973 71.8306 28.1694C73.0027 29.3415 74.5924 30 76.25 30C77.9076 30 79.4973 29.3415 80.6694 28.1694C81.8415 26.9973 82.5 25.4076 82.5 23.75ZM50 35C53.9782 35 57.7936 36.5804 60.6066 39.3934C63.4196 42.2064 65 46.0218 65 50C65 53.9782 63.4196 57.7936 60.6066 60.6066C57.7936 63.4196 53.9782 65 50 65C46.0218 65 42.2064 63.4196 39.3934 60.6066C36.5804 57.7936 35 53.9782 35 50C35 46.0218 36.5804 42.2064 39.3934 39.3934C42.2064 36.5804 46.0218 35 50 35V35Z" fill="#F7F7F7"/>
</svg>
