<svg width="100" height="100" viewBox="0 0 100 100" fill="none" xmlns="http://www.w3.org/2000/svg">
<path d="M50 0C22.5 0 0 22.5 0 50C0 77.5 22.5 100 50 100C77.5 100 100 77.5 100 50C100 22.5 77.75 0 50 0ZM68.75 73.25C57 66 42.25 64.5 24.75 68.5C23 69 21.5 67.75 21 66.25C20.5 64.5 21.75 63 23.25 62.5C42.25 58.25 58.75 60 71.75 68C73.5 68.75 73.75 70.75 73 72.25C72 73.75 70.25 74.25 68.75 73.25ZM73.75 59.75C60.25 51.5 39.75 49 24 54C22 54.5 19.75 53.5 19.25 51.5C18.75 49.5 19.75 47.25 21.75 46.75C40 41.25 62.5 44 78 53.5C79.5 54.25 80.25 56.75 79 58.5C77.75 60.25 75.5 61 73.75 59.75ZM21.5 38.75C19 39.5 16.5 38 15.75 35.75C15 33.25 16.5 30.75 18.75 30C36.5 24.75 65.75 25.75 84.25 36.75C86.5 38 87.25 41 86 43.25C84.75 45 81.75 45.75 79.5 44.5C63.5 35 36.75 34 21.5 38.75Z" fill="#F7F7F7"/>
</svg>
