<svg width="142" height="142" viewBox="0 0 142 142" fill="none" xmlns="http://www.w3.org/2000/svg">
<path d="M85.4515 124.269L70.7694 137.32C69.7185 138.255 68.3522 138.757 66.9461 138.724C65.54 138.691 64.1987 138.125 63.193 137.142C61.4556 135.439 60.0715 134.015 59.0529 132.869C26.4372 96.1786 29.7421 39.9995 66.435 7.38202C67.581 6.3633 69.1187 5.10789 71.0476 3.62363C72.1617 2.76502 73.5599 2.36093 74.9602 2.49289C76.3605 2.62485 77.6586 3.28304 78.5926 4.33464L91.6433 19.016C92.1016 19.5305 92.3523 20.197 92.3466 20.8861C92.341 21.5752 92.0795 22.2376 91.6128 22.7446C90.7427 23.689 90.0603 24.4517 89.557 25.0478C84.5317 30.992 80.4339 37.6618 77.4026 44.831C76.9228 45.9637 75.7016 46.5884 74.5058 46.3135L60.1383 43.0451C52.2425 59.8713 51.112 79.0873 56.9806 96.7224L71.6083 95.1659C72.206 95.1025 72.807 95.2508 73.3065 95.5851C73.8061 95.9193 74.1725 96.4183 74.3418 96.9951C76.5158 104.465 79.8062 111.564 84.1016 118.051C84.5316 118.701 85.1156 119.542 85.8658 120.57C86.2682 121.129 86.449 121.816 86.3731 122.501C86.2972 123.185 85.9701 123.816 85.4552 124.273L85.4515 124.269Z" fill="#F7F7F7"/>
</svg>
