<svg width="100" height="100" viewBox="0 0 100 100" fill="none" xmlns="http://www.w3.org/2000/svg">
<path d="M99.9951 11.8711C96.2498 13.9087 92.2781 15.2468 88.2113 15.8413C92.4978 12.6883 95.706 7.72599 97.238 1.87921C93.2153 4.82368 88.8049 6.88722 84.2082 8.00346C81.1205 3.94021 77.0279 1.24544 72.5665 0.3381C68.1051 -0.569246 63.525 0.361669 59.5382 2.98612C55.5514 5.61057 52.3812 9.78151 50.5206 14.8505C48.6599 19.9195 48.2131 25.6026 49.2494 31.0162C41.0916 30.5133 33.1109 27.9059 25.8256 23.3634C18.5402 18.8208 12.1131 12.4446 6.96134 4.6487C5.1378 8.50095 4.17953 12.8801 4.18465 17.3377C4.18465 26.0866 7.80514 33.8158 13.3095 38.3411C10.052 38.215 6.86633 37.1331 4.01786 35.1855V35.4992C4.01884 41.326 5.65821 46.9731 8.65801 51.483C11.6578 55.9929 15.8334 59.088 20.4768 60.2436C17.453 61.2515 14.2823 61.4 11.2049 60.6781C12.5141 65.6935 15.0658 70.0798 18.5027 73.2229C21.9396 76.3659 26.0897 78.1083 30.3719 78.2061C26.116 82.317 21.243 85.356 16.0316 87.1491C10.8202 88.9423 5.37249 89.4545 0 88.6565C9.37842 96.0746 20.2958 100.013 31.4462 100C69.1866 100 89.8254 61.5469 89.8254 28.1984C89.8254 27.1123 89.8008 26.0142 89.7616 24.9402C93.7788 21.3692 97.2459 16.9456 100 11.8771L99.9951 11.8711Z" fill="#F7F7F7"/>
</svg>
