<svg width="100" height="100" viewBox="0 0 100 100" fill="none" xmlns="http://www.w3.org/2000/svg">
<path d="M97.715 15.6125C100 26.75 100 50 100 50C100 50 100 73.25 97.715 84.3875C96.445 90.5438 92.73 95.3875 88.025 97.025C79.48 100 50 100 50 100C50 100 20.535 100 11.975 97.025C7.25 95.3625 3.54 90.525 2.285 84.3875C1.49012e-07 73.25 0 50 0 50C0 50 1.49012e-07 26.75 2.285 15.6125C3.555 9.45625 7.27 4.6125 11.975 2.975C20.535 -1.11759e-06 50 0 50 0C50 0 79.48 -1.11759e-06 88.025 2.975C92.75 4.6375 96.46 9.475 97.715 15.6125V15.6125ZM40 71.875L70 50L40 28.125V71.875Z" fill="#F7F7F7"/>
</svg>
